PathFileType	4	(X/Y/Z)	/Users/visionmauri/4_2_2_f_1_Sports2D/4_2_2_f_1_Sports2D_px_person00.trc
DataRate	CameraRate	NumFrames	NumMarkers	Units	OrigDataRate	OrigDataStartFrame	OrigNumFrames
30.0	30.0	5	22	m	30.0	40	325
Frame#	Time	Hip			RHip			RKnee			RAnkle			RBigToe			RSmallToe			RHeel			LHip			LKnee			LAnkle			LBigToe			LSmallToe			LHeel			Neck			Head			Nose			RShoulder			RElbow			RWrist			LShoulder			LElbow			LWrist			
		X1	Y1	Z1	X2	Y2	Z2	X3	Y3	Z3	X4	Y4	Z4	X5	Y5	Z5	X6	Y6	Z6	X7	Y7	Z7	X8	Y8	Z8	X9	Y9	Z9	X10	Y10	Z10	X11	Y11	Z11	X12	Y12	Z12	X13	Y13	Z13	X14	Y14	Z14	X15	Y15	Z15	X16	Y16	Z16	X17	Y17	Z17	X18	Y18	Z18	X19	Y19	Z19	X20	Y20	Z20	X21	Y21	Z21	X22	Y22	Z22
40	1.337448559670782	487.08210267796443	853.2197298196704	0.0	549.5248381572771	847.6289517679602	0.0	594.2997836048332	1012.584931882563	0.0	620.6844014012236	1220.6762315555209	0.0	623.8074011068535	1348.643811499167	0.0	659.868410576916	1322.0941695849428	0.0	623.9064405817213	1238.7543682880678	0.0	429.7305498881199	864.8581873329402	0.0	461.0615184086429	1106.9569634742336	0.0	484.67505243957953	1360.0268724858038	0.0	480.3723268136023	1384.845530336118	0.0	450.5253344164287	1398.3441517346948	0.0	487.7481713341073	1399.2412852440002	0.0	472.0947757954403	541.556699909729	0.0	488.8936831166704	427.9985421978726	0.0	496.6752891724833	502.84341329403867	0.0	562.9333545454854	559.8224391466653	0.0	647.819326629716	702.2974989299844	0.0	743.7967576441831	830.7669854562976	0.0	376.807583871057	588.9446955299006	0.0	352.64535207169195	761.6953149918173	0.0	386.4878284039441	866.6767164452433	0.0
41	1.3708847736625516	485.6038667122603	853.0040447216446	0.0	548.7480342005223	847.791009444626	0.0	594.5502810610374	1014.508859069247	0.0	619.4378160660516	1202.8428308678335	0.0	621.9041550284308	1322.4507558520795	0.0	657.9794630822745	1298.7754593811069	0.0	619.9554017015762	1227.7939059468222	0.0	429.43661067540006	863.9492537651208	0.0	460.7592364948939	1106.1024927266913	0.0	484.54668267407686	1360.699832448406	0.0	483.12238535931846	1385.0888784255737	0.0	451.9200730809875	1397.7010896034988	0.0	487.644641744067	1399.4246540995237	0.0	476.10246337940714	541.8714719437572	0.0	496.0150565496237	429.65218097525275	0.0	502.11620314623684	503.4746341711223	0.0	564.7809858281279	560.8743518818524	0.0	648.849552096634	702.8862855610229	0.0	744.1139129850095	830.1445880415479	0.0	381.00270596119384	588.3723932452148	0.0	355.19895906665636	759.8956036532522	0.0	385.563340564415	863.990777320101	0.0
42	1.404320987654321	484.8105372987349	852.0306510407515	0.0	548.0067691090721	848.4238534101767	0.0	594.1025714123031	1016.0427333082313	0.0	615.6201233655095	1160.4808158001913	0.0	616.0531624203917	1240.3714664828833	0.0	651.15613146907	1227.7707717021374	0.0	613.5961090219843	1192.2755498182696	0.0	430.27782626770687	863.0684999396433	0.0	460.71050457042503	1105.2181436425715	0.0	484.3080703690211	1359.9417983206322	0.0	485.20673943507023	1386.3272613499366	0.0	453.1269913869529	1397.317370748186	0.0	487.3359983377668	1397.8226308898816	0.0	480.1683224427686	542.3725717153825	0.0	503.94520656251495	432.01165555277834	0.0	506.86360701301254	503.82710726771904	0.0	567.4946525033552	562.2433949679271	0.0	649.5190167634033	703.6008332874658	0.0	744.5703730268247	829.6184070198614	0.0	385.59210234320443	587.7456934993796	0.0	358.27835455193775	756.5499736213762	0.0	384.07500964582533	861.332699595959	0.0
43	1.4377572016460904	486.25842413435015	851.4839115445657	0.0	547.9353816250507	850.5382540660272	0.0	592.1108044694739	1016.2243610850595	0.0	609.1135578952839	1103.7559320880796	0.0	609.1345428256999	1130.662594011157	0.0	640.7834262969922	1130.0586054008581	0.0	605.5457146098241	1140.0732868090338	0.0	432.4461497975351	863.9117334267743	0.0	461.61630001280616	1105.1420603351426	0.0	484.00130896900544	1358.8543790327826	0.0	485.8728222923636	1388.6599852830793	0.0	453.32728937642185	1398.8322662318826	0.0	486.99844545616304	1396.38252919911	0.0	484.19296678726135	542.9100145560856	0.0	509.7716497304189	433.96556564852375	0.0	511.245019419758	504.61747513506145	0.0	571.2097335172887	564.2871032897252	0.0	650.8823765939887	704.5935606222716	0.0	745.1428842426343	830.2495909040208	0.0	389.6469447414837	587.7430227063836	0.0	360.89070555994056	753.4756547397875	0.0	383.66283386843935	859.6517815780106	0.0
44	1.47119341563786	489.37422124400535	853.2576391380211	0.0	549.1846846581127	854.5075205444551	0.0	588.6885265674931	1014.9885401213149	0.0	602.913631272854	1061.9907087251704	0.0	604.1627723684679	1057.4696116870755	0.0	632.4726069997264	1063.4346999941883	0.0	599.0946993041771	1096.8543919853105	0.0	435.5467453954769	866.601040914161	0.0	463.3947668384424	1106.280432640322	0.0	483.9940405088743	1358.4528234993982	0.0	486.466984790822	1391.237727901295	0.0	453.8142398789717	1401.2281814831308	0.0	486.92633443471146	1396.1149133844233	0.0	488.9651589920084	543.5224472075599	0.0	513.0080354244811	434.9638851890045	0.0	514.3106468360295	505.0910936457298	0.0	575.9545597263218	566.9704471424858	0.0	653.4114711375302	706.0946762925405	0.0	745.5269006669535	832.187014107179	0.0	393.0548238283668	588.4112187650975	0.0	362.6269088991826	750.5141290332909	0.0	383.8379512712827	859.0074006056718	0.0
